<svg width="1440" height="900" viewBox="0 0 1440 900" xmlns="http://www.w3.org/2000/svg">
  <defs>
    <linearGradient id="grad1" x1="0%" y1="0%" x2="100%" y2="100%">
      <stop offset="0%" style="stop-color:#6366f1;stop-opacity:1" />
      <stop offset="100%" style="stop-color:#10b981;stop-opacity:1" />
    </linearGradient>
  </defs>
  
  <!-- Background Shapes -->
  <circle cx="200" cy="150" r="80" fill="url(#grad1)" opacity="0.7" />
  <circle cx="1200" cy="700" r="120" fill="url(#grad1)" opacity="0.5" />
  <circle cx="600" cy="300" r="150" fill="url(#grad1)" opacity="0.3" />
  <circle cx="1000" cy="200" r="70" fill="url(#grad1)" opacity="0.6" />
  <circle cx="300" cy="700" r="100" fill="url(#grad1)" opacity="0.4" />
  
  <!-- Connecting Lines -->
  <path d="M200,150 L600,300 L1000,200 L1200,700 L300,700 Z" stroke="url(#grad1)" stroke-width="2" fill="none" opacity="0.2" />
  <path d="M200,150 C400,50 800,350 1000,200" stroke="url(#grad1)" stroke-width="3" fill="none" opacity="0.3" />
  <path d="M300,700 C500,600 900,800 1200,700" stroke="url(#grad1)" stroke-width="3" fill="none" opacity="0.3" />
  <path d="M600,300 C700,400 800,250 1000,200" stroke="url(#grad1)" stroke-width="2" fill="none" opacity="0.2" />
  
  <!-- Small Decorative Elements -->
  <circle cx="400" cy="400" r="5" fill="url(#grad1)" />
  <circle cx="450" cy="420" r="3" fill="url(#grad1)" />
  <circle cx="420" cy="380" r="4" fill="url(#grad1)" />
  
  <circle cx="800" cy="600" r="5" fill="url(#grad1)" />
  <circle cx="850" cy="620" r="3" fill="url(#grad1)" />
  <circle cx="820" cy="580" r="4" fill="url(#grad1)" />
  
  <circle cx="1100" cy="400" r="5" fill="url(#grad1)" />
  <circle cx="1150" cy="420" r="3" fill="url(#grad1)" />
  <circle cx="1120" cy="380" r="4" fill="url(#grad1)" />
</svg>
